Coordinates
version=1
nRows=13
nColumns=38
inDegrees=no

Units are S.I. units (second, meters, Newtons, ...)
If the header above contains a line with 'inDegrees', this indicates whether rotational values are in degrees (yes) or radians (no).

endheader
time	pelvis_tilt	pelvis_list	pelvis_rotation	pelvis_tx	pelvis_ty	pelvis_tz	hip_flexion_r	hip_adduction_r	hip_rotation_r	knee_angle_r	ankle_angle_r	subtalar_angle_r	mtp_angle_r	hip_flexion_l	hip_adduction_l	hip_rotation_l	knee_angle_l	ankle_angle_l	subtalar_angle_l	mtp_angle_l	lumbar_extension	lumbar_bending	lumbar_rotation	arm_flex_r	arm_add_r	arm_rot_r	elbow_flex_r	pro_sup_r	wrist_flex_r	wrist_dev_r	arm_flex_l	arm_add_l	arm_rot_l	elbow_flex_l	pro_sup_l	wrist_flex_l	wrist_dev_l
1.89	-0.432727	1.5169	-1.13102	0.753828	-0.403142	1.03093	-0.36817	0.024319	-0.308571	0.157866	-0.05842	0	0	0.226619	0.0187897	-0.240714	0	-0.111647	0	0	-0.550398	0.029389	-0.0424685	-0.0875281	-0.516682	0.306629	1.00054	0.903443	0	0	-0.303753	-0.393375	-0.190115	0.86487	1.26982	0	0
1.9	-0.411986	1.5149	-1.15403	0.753742	-0.417519	1.02915	-0.375257	0.0192418	-0.310783	0.179473	-0.0596503	0	0	0.230459	0.0224773	-0.240359	0	-0.112391	0	0	-0.552865	0.0247766	-0.0425924	-0.0878604	-0.514028	0.306359	1.00022	0.903085	0	0	-0.303264	-0.395428	-0.18984	0.86158	1.26787	0	0
1.91	-0.376929	1.51471	-1.19484	0.753315	-0.432334	1.02725	-0.37641	0.00953997	-0.309566	0.214099	-0.0184276	0	0	0.236464	0.0258302	-0.249339	0	-0.0782534	0	0	-0.550989	0.027568	0.00109794	-0.153665	-0.50309	0.206977	1.03461	0.928493	0	0	-0.251067	-0.427788	-0.0647735	0.820038	1.17893	0	0
1.92	-0.298386	1.50829	-1.27043	0.753616	-0.447615	1.02606	-0.388764	0.00300262	-0.318593	0.23763	-0.0748293	0	0	0.230406	0.0319628	-0.235623	0	-0.140079	0	0	-0.558758	0.0122283	-0.0421668	-0.0955504	-0.502771	0.295308	0.995624	0.921451	0	0	-0.301536	-0.40687	-0.173068	0.854173	1.25299	0	0
1.93	-0.235804	1.50488	-1.33487	0.753644	-0.463378	1.02464	-0.394742	-0.00679151	-0.314333	0.268257	-0.0843094	0	0	0.229	0.0366236	-0.231972	0.00862999	-0.154544	0	0	-0.559878	0.00381478	-0.0431188	-0.0970929	-0.497451	0.297177	0.988209	0.924026	0	0	-0.303616	-0.410748	-0.171038	0.851851	1.25124	0	0
1.94	-0.178673	1.50164	-1.39422	0.753723	-0.479532	1.02322	-0.398619	-0.017309	-0.305608	0.302118	-0.0987934	0	0	0.23221	0.0401731	-0.24244	0.0524749	-0.181852	0	0	-0.55938	-0.00515799	-0.0446699	-0.0984429	-0.491637	0.29981	0.979057	0.926436	0	0	-0.307272	-0.414371	-0.169399	0.849174	1.25025	0	0
1.95	-0.13189	1.50338	-1.44198	0.754344	-0.495521	1.02152	-0.39377	-0.0286475	-0.289832	0.340969	-0.101929	0	0	0.190626	0.0553684	-0.149392	0	-0.212334	0	0	-0.554202	-0.0122548	-0.0430092	-0.107212	-0.485012	0.289707	0.973825	0.932429	0	0	-0.304189	-0.41798	-0.159702	0.840525	1.24803	0	0
1.96	-0.071713	1.50848	-1.50267	0.755072	-0.511644	1.02006	-0.38036	-0.041918	-0.269152	0.390006	-0.150585	0	0	0.185735	0.060113	-0.121563	0	-0.267228	0	0	-0.540666	-0.0231849	-0.0531169	-0.0976026	-0.477414	0.310001	0.949903	0.933743	0	0	-0.313584	-0.41807	-0.167063	0.83493	1.2475	0	0
1.97	-0.0332409	1.50633	-1.54091	0.754925	-0.527562	1.0198	-0.374358	-0.0500625	-0.240844	0.433102	-0.17584	0	0	0.261421	0.0469398	-0.259959	0.178834	-0.223091	0	0	-0.53926	-0.0311325	-0.0564232	-0.0981982	-0.468011	0.310655	0.93937	0.934725	0	0	-0.314317	-0.422033	-0.165508	0.828274	1.2452	0	0
1.98	-0.0302745	1.50362	-1.54817	0.755659	-0.543927	1.0189	-0.365784	-0.0601933	-0.207842	0.479921	-0.206145	0	0	0.305821	-0.00104076	-0.415372	0.348385	-0.196017	0	0	-0.535978	-0.0355803	-0.0555326	-0.104018	-0.466839	0.311166	0.937854	0.932615	0	0	-0.318475	-0.419951	-0.166522	0.824176	1.2462	0	0
1.99	0.0105735	1.50188	-1.59164	0.756575	-0.55963	1.01876	-0.352942	-0.0720489	-0.17423	0.527334	-0.251508	0	0	0.315675	-0.0315522	-0.50332	0.436795	-0.184798	0	0	-0.533496	-0.0407492	-0.0565144	-0.107945	-0.465211	0.31126	0.935508	0.930769	0	0	-0.318535	-0.418302	-0.16544	0.818148	1.24574	0	0
2	0.0995923	1.50533	-1.67873	0.757431	-0.574051	1.01939	-0.329071	-0.0831981	-0.141399	0.578285	-0.311547	0	0	0.312981	-0.0213233	-0.483727	0.449625	-0.171556	0	0	-0.528399	-0.0447584	-0.0548507	-0.118348	-0.455308	0.287729	0.932776	0.947933	0	0	-0.303643	-0.425384	-0.137477	0.802216	1.22757	0	0
2.01	0.305859	1.51928	-1.87483	0.758479	-0.586843	1.02022	-0.285792	-0.0924432	-0.111569	0.637022	-0.357143	0	0	0.300777	0.0450682	-0.29609	0.370331	-0.151225	0	0	-0.514074	-0.0524488	-0.0708055	-0.103889	-0.443849	0.300427	0.908933	0.942701	0	0	-0.296146	-0.426802	-0.141091	0.791362	1.23304	0	0
